<svg xmlns="http://www.w3.org/2000/svg" viewBox="0 0 51.45 48"><path d="M43.5,31.5a2.5,2.5,0,0,0,1.4.4c1.5,0.1,2.5,1.2,4,1.3,0.8,0.8,3,2,2.3,3.2-0.5.9-2.3,1.1-3.1,0.7-0.4-.2-0.6-0.5-1-0.7-1.4-.8-6.2-2.4-8.1-0.8a0.75,0.75,0,0,1-.9,0c-0.2-.1-0.4-0.3-0.6-0.4-0.7-.4-3.4.1-4,1.3l-0.3.6c-0.1.3-.3,0.3-0.6,0.1a4.23,4.23,0,0,1-.7-0.5,1.23,1.23,0,0,0-1.7.7,3,3,0,0,0-.5,1.6,3.17,3.17,0,0,0-.5-0.6c-0.3-.2-0.4,0-0.7.2,1.2,0.7,1.4,0,2.2-1a3,3,0,0,0,.4-1,1.82,1.82,0,0,1-.1,1.6,3,3,0,0,1-4.4,1.1c-0.9-.5-0.3-2.5.2-3.5-2.5-1.4-4.3.8-7,.6-2.5-.2-4.8,1-6.6,1-1.8-.3-4.3,1.8-6.3,2.8-1,.6-1.4,1.7-2.1,2.5-0.4.7,0.4,1.4,0.9,1.6a16.59,16.59,0,0,0,1.6.6,3,3,0,0,1,.7.5c1.3,0.8,2.1-1.5,4-1,2.1,0.6,3.6-1.2,5.3-2.7,1.2-.7,4.2-1.9,4.9-3.1v0.1c0.2,0.1,2.5-1.3,2.7-1.2,1,0.5-.3,2,0.1,2.2l0.8,0.4a0.4,0.4,0,0,1,.2.6c-0.6,1-2.3,1.4-4.5,1.4a1.47,1.47,0,0,1-.6-0.5L21,41.8V41.6l0.6,0.6c-0.8,1.4-1.5,2.8-2.9,2.5-0.9-.3-1.3,1.3-2.4,1.2-1.5-.2-1.6,2.3-3.3,1.3-0.8-.5-1.7.7-2.4,0.5a4.3,4.3,0,0,0-1.6,0,6.29,6.29,0,0,1-4.8-.9c-1.4-.8-2.2.3-2.9-0.1-1.6-.9-1.7-5.4-1-6.6C0.4,39.9,2,39,2.8,38.2c0.4-.5,4.5-5.2,8.9-5.3,1.5,0,2.4-1.3,4.1-.9a5.21,5.21,0,0,0,2.8-.2c1-.4,1.9-0.8,2.2-0.6,1.4,0.5,2.2-.8,3.6-0.1s3.1-1.3,5-.7c2.9,0.8,4.1-1.9,6.4-4.8" transform="translate(0.11)" fill="#fff"/><path d="M25.7,0a24,24,0,1,0,24,24A23.94,23.94,0,0,0,25.7,0ZM36.9,29.7L20,35.4l-5.6-17,16.9-5.6Z" transform="translate(0.11)" fill="#00bfff"/><path d="M34.6,23c-0.4-.1-0.7-0.2-1-0.3s-0.7-.6-1.2-0.8c-0.9-.3-2.8.5-5.2,0.4a11.64,11.64,0,0,0-4,.7,3.81,3.81,0,0,0-1-.9,9.08,9.08,0,0,1-5.8.2c-0.4-.1-0.2-1.2-0.6-1.6-2-1.6-3.3-3.4-2.6-5.4,0.1-.2.3-0.4,0.4-0.6,0.2-.5.1-1,0.3-1.5,0.2-.7,1-1.2,1.3-2a5.36,5.36,0,0,1,3.2-2.9c0.9-.5,4.1-2.2,4.1-2.2,1.1-1.7,3.1-.3,4.4-2,0.6-.8,2.7-0.6,3.9-1.6,1.6-1.3,3.1-1.6,4.8-2.4C37,0.8,41,2.2,40.5,4.8a1.08,1.08,0,0,1-.8.8c-2.1-.4-4.4.8-5.9,2-1.8,1-4.4.4-6.5,3.5-0.6,1-2.7.9-3.8,2.4-0.5.5-1.9,1.3-2.1,1.9a0.52,0.52,0,0,0,.5.7c0.1,0,.3.1,0.4,0.1a88,88,0,0,1,10.3.9Z" transform="translate(0.11)" fill="#fff"/></svg>
