<?xml version="1.0" encoding="utf-8"?>
<!-- Generator: Adobe Illustrator 19.2.1, SVG Export Plug-In . SVG Version: 6.00 Build 0)  -->
<svg version="1.1" id="Layer_1" xmlns="http://www.w3.org/2000/svg" xmlns:xlink="http://www.w3.org/1999/xlink" x="0px" y="0px"
	 viewBox="0 0 51.3 48" style="enable-background:new 0 0 51.3 48;" xml:space="preserve">
<style type="text/css">
	.st0{fill:#FFFFFF;}
	.st1{fill:#00BFFF;}
</style>
<path class="st0" d="M43.5,31.5c0.5,0.3,0.9,0.4,1.4,0.4c1.5,0.1,2.5,1.2,4,1.3c0.8,0.8,3,2,2.3,3.2c-0.5,0.9-2.3,1.1-3.1,0.7
	c-0.4-0.2-0.6-0.5-1-0.7c-1.4-0.8-6.2-2.4-8.1-0.8c-0.3,0.2-0.6,0.2-0.9,0c-0.2-0.1-0.4-0.3-0.6-0.4c-0.7-0.4-3.4,0.1-4,1.3
	c-0.1,0.2-0.2,0.4-0.3,0.6c-0.1,0.3-0.3,0.3-0.6,0.1c-0.3-0.1-0.5-0.4-0.7-0.5c-0.6-0.3-1.3-0.1-1.7,0.7c-0.3,0.5-0.5,1-0.5,1.6
	c-0.2-0.2-0.3-0.5-0.5-0.6c-0.3-0.2-0.4,0-0.7,0.2c1.2,0.7,1.4,0,2.2-1c0.2-0.3,0.3-0.6,0.4-1c0.2,0.5,0.2,1-0.1,1.6
	c-0.9,1.6-2.6,2.2-4.4,1.1c-0.9-0.5-0.3-2.5,0.2-3.5c-2.5-1.4-4.3,0.8-7,0.6c-2.5-0.2-4.8,1-6.6,1c-1.8-0.3-4.3,1.8-6.3,2.8
	c-1,0.6-1.4,1.7-2.1,2.5c-0.4,0.7,0.4,1.4,0.9,1.6c0.5,0.3,1.2,0.4,1.6,0.6C7.6,45,7.7,45.2,8,45.4c1.3,0.8,2.1-1.5,4-1
	c2.1,0.6,3.6-1.2,5.3-2.7c1.2-0.7,4.2-1.9,4.9-3.1c0,0.1,0,0.1,0,0.1c0.2,0.1,2.5-1.3,2.7-1.2c1,0.5-0.3,2,0.1,2.2
	c0.2,0.1,0.4,0.2,0.8,0.4c0.2,0.1,0.4,0.4,0.2,0.6c-0.6,1-2.3,1.4-4.5,1.4c-0.3-0.1-0.4-0.3-0.6-0.5l0.1,0.2v-0.2
	c0.2,0.2,0.4,0.4,0.6,0.6c-0.8,1.4-1.5,2.8-2.9,2.5c-0.9-0.3-1.3,1.3-2.4,1.2c-1.5-0.2-1.6,2.3-3.3,1.3c-0.8-0.5-1.7,0.7-2.4,0.5
	c-0.5-0.1-1.1-0.1-1.6,0c-2.3,0.4-3.2-0.1-4.8-0.9C2.8,46,2,47.1,1.3,46.7c-1.6-0.9-1.7-5.4-1-6.6C0.4,39.9,2,39,2.8,38.2
	c0.4-0.5,4.5-5.2,8.9-5.3c1.5,0,2.4-1.3,4.1-0.9c1,0.3,2,0,2.8-0.2c1-0.4,1.9-0.8,2.2-0.6c1.4,0.5,2.2-0.8,3.6-0.1
	c1.4,0.8,3.1-1.3,5-0.7c2.9,0.8,4.1-1.9,6.4-4.8"/>
<path class="st1" d="M25.7,0c-13.3,0-24,10.7-24,24s10.7,24,24,24s24-10.7,24-24S38.9,0,25.7,0z M36.9,29.7L20,35.4l-5.6-17
	l16.9-5.6L36.9,29.7z"/>
<path class="st0" d="M34.6,23c-0.4-0.1-0.7-0.2-1-0.3c-0.4-0.1-0.7-0.6-1.2-0.8c-0.9-0.3-2.8,0.5-5.2,0.4c-1.7,0-2.2,0.2-4,0.7
	c-0.4-0.4-0.7-0.8-1-0.9c0,0-2.9,1.2-5.8,0.2c-0.4-0.1-0.2-1.2-0.6-1.6c-2-1.6-3.3-3.4-2.6-5.4c0.1-0.2,0.3-0.4,0.4-0.6
	c0.2-0.5,0.1-1,0.3-1.5c0.2-0.7,1-1.2,1.3-2c0.6-1.5,1.9-2.4,3.2-2.9c0.9-0.5,4.1-2.2,4.1-2.2c1.1-1.7,3.1-0.3,4.4-2
	c0.6-0.8,2.7-0.6,3.9-1.6c1.6-1.3,3.1-1.6,4.8-2.4C37,0.8,41,2.2,40.5,4.8c-0.1,0.4-0.5,0.8-0.8,0.8c-2.1-0.4-4.4,0.8-5.9,2
	c-1.8,1-4.4,0.4-6.5,3.5c-0.6,1-2.7,0.9-3.8,2.4c-0.5,0.5-1.9,1.3-2.1,1.9c-0.1,0.3,0,0.6,0.5,0.7c0.1,0,0.3,0.1,0.4,0.1
	c2.8,0.2,6.4,0.2,10.3,0.9L34.6,23z"/>
</svg>
